<svg xmlns="http://www.w3.org/2000/svg" xmlns:xlink="http://www.w3.org/1999/xlink" version="1.1" x="0px" y="0px" viewBox="0 0 100 125" enable-background="new 0 0 100 100" xml:space="preserve"><g><defs><path id="b" d="M18.446,23.135v26.891h4.482v8.964h-4.065c0.954,2.586,3.441,4.429,6.358,4.429    c3.742,0,6.775-3.033,6.775-6.775v-4.431c0-8.644,7.008-15.652,15.652-15.652S63.3,43.569,63.3,52.213v11.259h4.447v8.964h-3.213    c1.559,2.65,4.441,4.429,7.739,4.429c4.955,0,8.973-4.017,8.973-8.973V54.508H76.71v-8.964h17.927v8.964h-4.429v13.384    c0,9.906-8.03,17.936-17.936,17.936c-8.336,0-15.344-5.687-17.356-13.393h-5.098v-8.964h4.517V52.213    c0-3.694-2.994-6.688-6.688-6.688c-3.694,0-6.688,2.994-6.688,6.688v4.431c0,8.692-7.046,15.739-15.739,15.739    c-7.895,0-14.433-5.813-15.565-13.393H5v-8.964h4.482V23.135H5v-8.964h17.927v8.964H18.446z"/></defs><use xlink:href="#b" overflow="visible"/><clipPath id="d"><use xlink:href="#b" overflow="visible"/></clipPath><g clip-path="url(#d)"><defs><rect id="a" x="-3.964" y="-3.756" width="107.565" height="107.565"/></defs><use xlink:href="#a" overflow="visible"/><clipPath id="c"><use xlink:href="#a" overflow="visible"/></clipPath><rect x="-17.409" y="-8.238" clip-path="url(#c)" width="134.456" height="116.476"/></g></g><text x="0" y="115" fill="#000000" font-size="5px" font-weight="bold" font-family="'Helvetica Neue', Helvetica, Arial-Unicode, Arial, Sans-serif">by Francisco Javier Diaz Montejano</text><text x="0" y="120" fill="#000000" font-size="5px" font-weight="bold" font-family="'Helvetica Neue', Helvetica, Arial-Unicode, Arial, Sans-serif">from the Noun Project</text></svg>